<svg xmlns="http://www.w3.org/2000/svg" viewBox="0 0 512 512"><rect width="512" height="512" rx="104" fill="#087f83"/><circle cx="256" cy="245" r="205" fill="none" stroke="#fff" stroke-width="13"/><path d="M92 298 178 184l72 79 47-51 122 104M95 303l82-106 73 79M271 277l56-54 91 93" fill="none" stroke="#fff" stroke-width="16" stroke-linecap="round" stroke-linejoin="round"/><path d="M244 201a52 52 0 0 1 96 28l-50 44-46-50Z" fill="#fff"/><path d="M289 167v-28m32 38 19-24m-78 22-17-24m103 51 29-12" stroke="#fff" stroke-width="9" stroke-linecap="round"/><path d="M88 327c70-20 126-14 178 5 58 21 103 20 160-4M105 351c55-14 101-8 145 8 49 18 92 18 145 1" fill="none" stroke="#fff" stroke-width="9" stroke-linecap="round"/><path d="M160 133c16-17 29-17 45-2-18-5-26 2-33 14-3-6-6-9-12-12Zm51 20c10-10 18-10 28-1-11-3-16 1-21 8-2-3-4-5-7-7Z" fill="#fff"/><text x="256" y="407" text-anchor="middle" fill="#fff" font-family="Georgia,serif" font-size="48" font-weight="700" letter-spacing="3">MIRADOR</text><text x="256" y="438" text-anchor="middle" fill="#fff" font-family="Arial,sans-serif" font-size="18" font-weight="700" letter-spacing="7">ECOLÓGICO</text></svg>